<svg xmlns="http://www.w3.org/2000/svg" version="1.1" xmlns:xlink="http://www.w3.org/1999/xlink" xmlns:svgjs="http://svgjs.dev/svgjs" viewBox="0 0 800 800"><defs><filter id="llleaves-blur-2" x="-100%" y="-100%" width="400%" height="400%"><feGaussianBlur in="SourceGraphic" stdDeviation="2"></feGaussianBlur></filter><filter id="llleaves-blur-3" x="-100%" y="-100%" width="400%" height="400%"><feGaussianBlur in="SourceGraphic" stdDeviation="4"></feGaussianBlur></filter><filter id="llleaves-blur-4" x="-100%" y="-100%" width="400%" height="400%"><feGaussianBlur in="SourceGraphic" stdDeviation="12"></feGaussianBlur></filter></defs><g fill="#f95738"><path d="M541 14H591C619 14 641 36 641 64H591C563 64 541 42 541 14Z " transform="matrix(-0.3792233961139934,-0.15321619748032742,0.15321619748032742,-0.3792233961139934,809.1455954016374,144.34048515931926)" opacity="0.63"></path><path d="M394 731H444C472 731 494 753 494 781H444C416 781 394 759 394 731Z " transform="matrix(0.012159704418570413,0.23202098209311414,-0.23202098209311414,0.012159704418570413,614.008953700549,643.7899474102181)" filter="url(#llleaves-blur-3)" opacity="0.35"></path><path d="M238 643H288C316 643 338 665 338 693H288C260 693 238 671 238 643Z " transform="matrix(0.04567579776388766,0.2148877334344344,-0.2148877334344344,0.04567579776388766,418.39037617820253,575.6008998646059)" filter="url(#llleaves-blur-3)" opacity="0.33"></path><path d="M707 93H757C785 93 807 115 807 143H757C729 143 707 121 707 93Z " transform="matrix(-0.11867364914156234,-0.47597400929010053,0.47597400929010053,-0.11867364914156234,790.6710193039308,492.31581563131044)" opacity="0.75"></path><path d="M132 623H182C210 623 232 645 232 673H182C154 673 132 651 132 623Z " transform="matrix(-0.06758602875692335,0.25223449320264907,-0.25223449320264907,-0.06758602875692335,357.7486088290766,645.8890688716042)" filter="url(#llleaves-blur-3)" opacity="0.40"></path><path d="M518 514H568C596 514 618 536 618 564H568C540 564 518 542 518 514Z " transform="matrix(-0.21120331355857772,0.2187074335629222,-0.2187074335629222,-0.21120331355857772,805.8467887916871,528.6127637443336)" filter="url(#llleaves-blur-2)" opacity="0.47"></path><path d="M313 261H363C391 261 413 283 413 311H363C335 311 313 289 313 261Z " transform="matrix(0.05571265656559248,0.20792246492742697,-0.20792246492742697,0.05571265656559248,402.242130635934,194.59032545358457)" filter="url(#llleaves-blur-3)" opacity="0.33"></path><path d="M342 628H392C420 628 442 650 442 678H392C364 678 342 656 342 628Z " transform="matrix(0.04554059031847826,0.2142516324157357,-0.2142516324157357,0.04554059031847826,514.0544045626319,539.2753546150653)" filter="url(#llleaves-blur-3)" opacity="0.33"></path><path d="M330 77H380C408 77 430 99 430 127H380C352 127 330 105 330 77Z " transform="matrix(0.055688274559954315,0.2078314700435949,-0.2078314700435949,0.055688274559954315,380.03726561166405,17.343837378318597)" filter="url(#llleaves-blur-3)" opacity="0.33"></path><path d="M534 621H584C612 621 634 643 634 671H584C556 671 534 649 534 621Z " transform="matrix(-0.2449858417131892,0.19838562297818013,-0.19838562297818013,-0.2449858417131892,855.2288440044069,688.403649927463)" filter="url(#llleaves-blur-2)" opacity="0.48"></path><path d="M386 158H436C464 158 486 180 486 208H436C408 208 386 186 386 158Z " transform="matrix(0.008187601379661387,0.23446222688753196,-0.23446222688753196,0.008187601379661387,475.336793318886,79.27613802455802)" filter="url(#llleaves-blur-3)" opacity="0.36"></path><path d="M532 273H582C610 273 632 295 632 323H582C554 323 532 301 532 273Z " transform="matrix(-0.21120331355857772,0.2187074335629222,-0.2187074335629222,-0.21120331355857772,770.0951436928431,233.65086110683544)" filter="url(#llleaves-blur-2)" opacity="0.47"></path><path d="M482 191H532C560 191 582 213 582 241H532C504 241 482 219 482 191Z " transform="matrix(-0.10645149809114024,0.25078401362349556,-0.25078401362349556,-0.10645149809114024,642.8015439271617,105.57642833998665)" filter="url(#llleaves-blur-3)" opacity="0.42"></path><path d="M570 431H620C648 431 670 453 670 481H620C592 481 570 459 570 431Z " transform="matrix(-0.3087625003849348,0.137469922118961,-0.137469922118961,-0.3087625003849348,874.1190347249058,511.5643484617744)" filter="url(#llleaves-blur-2)" opacity="0.52"></path><path d="M608 81H658C686 81 708 103 708 131H658C630 131 608 109 608 81Z " transform="matrix(-0.34516058561357243,-0.2600971572249596,0.2600971572249596,-0.34516058561357243,857.545366667885,313.73095152906205)" opacity="0.66"></path><path d="M410 19H460C488 19 510 41 510 69H460C432 69 410 47 410 19Z " transform="matrix(-0.10632516253232237,0.2504863856983668,-0.2504863856983668,-0.10632516253232237,519.9309757355965,-66.54543026982655)" filter="url(#llleaves-blur-3)" opacity="0.42"></path><path d="M707 277H757C785 277 807 299 807 327H757C729 327 707 305 707 277Z " transform="matrix(-0.36673714815896535,-0.2032857207284896,0.2032857207284896,-0.36673714815896535,973.227733496333,566.6419093354741)" opacity="0.64"></path><path d="M622 247H672C700 247 722 269 722 297H672C644 297 622 275 622 247Z " transform="matrix(-0.3711602257638319,0.012961200688403719,-0.012961200688403719,-0.3711602257638319,924.945118300541,364.24565454515505)" filter="url(#llleaves-blur-2)" opacity="0.57"></path><path d="M576 165H626C654 165 676 187 676 215H626C598 215 576 193 576 165Z " transform="matrix(-0.3087625003849348,0.137469922118961,-0.137469922118961,-0.3087625003849348,845.4046104435719,162.60870382666803)" filter="url(#llleaves-blur-2)" opacity="0.52"></path><path d="M442 652H492C520 652 542 674 542 702H492C464 702 442 680 442 652Z " transform="matrix(-0.04847983981904441,0.2494071546346623,-0.2494071546346623,-0.04847983981904441,684.7007248786364,587.1125314772393)" filter="url(#llleaves-blur-3)" opacity="0.39"></path><path d="M233 463H283C311 463 333 485 333 513H283C255 513 233 491 233 463Z " transform="matrix(0.034905340102761556,0.22038364394405824,-0.22038364394405824,0.034905340102761556,380.66900699561893,408.59762279368385)" filter="url(#llleaves-blur-3)" opacity="0.34"></path><path d="M383 353H433C461 353 483 375 483 403H433C405 403 383 381 383 353Z " transform="matrix(0.02765353832421715,0.2252199960716965,-0.2252199960716965,0.02765353832421715,506.1591764207153,270.0267042144013)" filter="url(#llleaves-blur-3)" opacity="0.35"></path><path d="M-5 720H45C73 720 95 742 95 770H45C17 770 -5 748 -5 720Z " transform="matrix(-0.3340875184212959,0.10214080467377565,-0.10214080467377565,-0.3340875184212959,136.12883781092117,989.2988650135455)" filter="url(#llleaves-blur-2)" opacity="0.54"></path><path d="M278 172H328C356 172 378 194 378 222H328C300 222 278 200 278 172Z " transform="matrix(0.05214311964822966,0.20913463010019764,-0.20913463010019764,0.05214311964822966,352.0965788851196,118.13164675643392)" filter="url(#llleaves-blur-3)" opacity="0.33"></path><path d="M89 720H139C167 720 189 742 189 770H139C111 770 89 748 89 720Z " transform="matrix(-0.13138838005215192,0.24710560360306436,-0.24710560360306436,-0.13138838005215192,341.35665951153203,808.5366642380272)" filter="url(#llleaves-blur-3)" opacity="0.43"></path><path d="M699 731H749C777 731 799 753 799 781H749C721 781 699 759 699 731Z " transform="matrix(-0.37815334839836595,-0.16051657306044292,0.16051657306044292,-0.37815334839836595,910.8863287166812,1162.1108446114363)" opacity="0.63"></path><path d="M188 728H238C266 728 288 750 288 778H238C210 778 188 756 188 728Z " transform="matrix(0.012172152037300042,0.2322584968075309,-0.2322584968075309,0.012172152037300042,409.99367591119335,688.5568472757207)" filter="url(#llleaves-blur-3)" opacity="0.35"></path><path d="M129 525H179C207 525 229 547 229 575H179C151 575 129 553 129 525Z " transform="matrix(-0.06758602875692335,0.25223449320264907,-0.25223449320264907,-0.06758602875692335,329.8268704089463,542.0223415330337)" filter="url(#llleaves-blur-3)" opacity="0.40"></path><path d="M84 221H134C162 221 184 243 184 271H134C106 271 84 249 84 221Z " transform="matrix(-0.13138838005215192,0.24710560360306436,-0.24710560360306436,-0.13138838005215192,212.39402141334222,245.20939061001874)" filter="url(#llleaves-blur-3)" opacity="0.43"></path><path d="M624 626H674C702 626 724 648 724 676H674C646 676 624 654 624 626Z " transform="matrix(-0.3711602257638319,0.012961200688403719,-0.012961200688403719,-0.3711602257638319,932.5997338129735,883.8894577082705)" filter="url(#llleaves-blur-2)" opacity="0.57"></path><path d="M197 286H247C275 286 297 308 297 336H247C219 336 197 314 197 286Z " transform="matrix(0.012172152037300042,0.2322584968075309,-0.2322584968075309,0.012172152037300042,316.2258709539291,249.84661200493954)" filter="url(#llleaves-blur-3)" opacity="0.35"></path><path d="M177 190H227C255 190 277 212 277 240H227C199 240 177 218 177 190Z " transform="matrix(-0.004162980003440539,0.23849696466672773,-0.23849696466672773,-0.004162980003440539,279.22184386412744,161.75622972139251)" filter="url(#llleaves-blur-3)" opacity="0.36"></path><path d="M264 12H314C342 12 364 34 364 62H314C286 62 264 40 264 12Z " transform="matrix(0.07932780246156938,0.18688459110468747,-0.18688459110468747,0.07932780246156938,296.0057998979407,-24.61689029794993)" filter="url(#llleaves-blur-3)" opacity="0.31"></path><path d="M-5 389H45C73 389 95 411 95 439H45C17 439 -5 417 -5 389Z " transform="matrix(-0.3340875184212959,0.10214080467377565,-0.10214080467377565,-0.3340875184212959,102.32023146390142,547.7158964160965)" filter="url(#llleaves-blur-2)" opacity="0.54"></path><path d="M482 95H532C560 95 582 117 582 145H532C504 145 482 123 482 95Z " transform="matrix(-0.20169094748572713,0.2240004904054061,-0.2240004904054061,-0.20169094748572713,666.1796429110556,25.03465280261119)" filter="url(#llleaves-blur-2)" opacity="0.46"></path><path d="M491 359H541C569 359 591 381 591 409H541C513 409 491 387 491 359Z " transform="matrix(-0.13697538657257935,0.24711013867369735,-0.24711013867369735,-0.13697538657257935,709.9939773864652,302.9119634214002)" filter="url(#llleaves-blur-3)" opacity="0.43"></path><path d="M610 526H660C688 526 710 548 710 576H660C632 576 610 554 610 526Z " transform="matrix(-0.3550035705836905,0.06259670774174654,-0.06259670774174654,-0.3550035705836905,928.7931425509379,705.2931402820607)" filter="url(#llleaves-blur-2)" opacity="0.55"></path><path d="M1 511H51C79 511 101 533 101 561H51C23 561 1 539 1 511Z " transform="matrix(-0.30522537595142973,0.14232893026939025,-0.14232893026939025,-0.30522537595142973,142.85480079791608,692.3420260662274)" filter="url(#llleaves-blur-2)" opacity="0.52"></path></g><g fill="none" stroke-width="3" stroke="#f95738"><path d="M502 729H552C580 729 602 751 602 779H552C524 779 502 757 502 729Z " transform="matrix(-0.17228094889826573,0.23712438330519114,-0.23712438330519114,-0.17228094889826573,825.8908688039568,753.0071758848269)" filter="url(#llleaves-blur-3)" opacity="0.45"></path><path d="M207 93H257C285 93 307 115 307 143H257C229 143 207 121 207 93Z " transform="matrix(0.052285240612971566,0.20970464615584022,-0.20970464615584022,0.052285240612971566,268.30784140885544,57.93624754561842)" filter="url(#llleaves-blur-3)" opacity="0.33"></path><path d="M335 437H385C413 437 435 459 435 487H385C357 487 335 465 335 437Z " transform="matrix(0.04554059031847826,0.2142516324157357,-0.2142516324157357,0.04554059031847826,466.4511269034557,358.47336879280476)" filter="url(#llleaves-blur-3)" opacity="0.33"></path><path d="M90 327H140C168 327 190 349 190 377H140C112 377 90 355 90 327Z " transform="matrix(-0.13138838005215192,0.24710560360306436,-0.24710560360306436,-0.13138838005215192,245.37554567557993,363.65392527392845)" filter="url(#llleaves-blur-3)" opacity="0.43"></path><path d="M294 727H344C372 727 394 749 394 777H344C316 777 294 755 294 727Z " transform="matrix(0.055619767218639,0.20757579716511468,-0.20757579716511468,0.055619767218639,480.96379954495444,638.767860826784)" filter="url(#llleaves-blur-3)" opacity="0.33"></path><path d="M245 553H295C323 553 345 575 345 603H295C267 603 245 581 245 553Z " transform="matrix(0.04567579776388766,0.2148877334344344,-0.2148877334344344,0.04567579776388766,405.73074958475627,488.2075075293148)" filter="url(#llleaves-blur-3)" opacity="0.33"></path><path d="M705 370H755C783 370 805 392 805 420H755C727 420 705 398 705 370Z " transform="matrix(-0.36673714815896535,-0.2032857207284896,0.2032857207284896,-0.36673714815896535,951.5886871722654,693.3418926728009)" opacity="0.64"></path><path d="M349 526H399C427 526 449 548 449 576H399C371 576 349 554 349 526Z " transform="matrix(0.04554059031847826,0.2142516324157357,-0.2142516324157357,0.04554059031847826,498.8819539239975,440.42073340063996)" filter="url(#llleaves-blur-3)" opacity="0.33"></path><path d="M709 641H759C787 641 809 663 809 691H759C731 691 709 669 709 641Z " transform="matrix(-0.36673714815896535,-0.2032857207284896,0.2032857207284896,-0.36673714815896535,901.9652054474806,1064.5408027067947)" opacity="0.64"></path><path d="M167 395H217C245 395 267 417 267 445H217C189 445 167 423 167 395Z " transform="matrix(-0.004162980003440539,0.23849696466672773,-0.23849696466672773,-0.004162980003440539,318.0720918207722,369.9946102687651)" filter="url(#llleaves-blur-3)" opacity="0.36"></path><path d="M442 448H492C520 448 542 470 542 498H492C464 498 442 476 442 448Z " transform="matrix(-0.04847983981904441,0.2494071546346623,-0.2494071546346623,-0.04847983981904441,633.8216653331651,373.2226441541542)" filter="url(#llleaves-blur-3)" opacity="0.39"></path><path d="M-4 149H46C74 149 96 171 96 199H46C18 199 -4 177 -4 149Z " transform="matrix(-0.3334113563349071,0.10193408117832747,-0.10193408117832747,-0.3334113563349071,79.07345251643471,227.32460826807076)" filter="url(#llleaves-blur-2)" opacity="0.53"></path><path d="M705 546H755C783 546 805 568 805 596H755C727 596 705 574 705 546Z " transform="matrix(-0.36673714815896535,-0.2032857207284896,0.2032857207284896,-0.36673714815896535,915.8104003240512,933.8876307487789)" opacity="0.64"></path><path d="M78 441H128C156 441 178 463 178 491H128C100 491 78 469 78 441Z " transform="matrix(-0.16645786960560047,0.2377264746837773,-0.2377264746837773,-0.16645786960560047,260.08714451215707,513.1403784766864)" filter="url(#llleaves-blur-3)" opacity="0.44"></path><path d="M438 560H488C516 560 538 582 538 610H488C460 610 438 588 438 560Z " transform="matrix(-0.04847983981904441,0.2494071546346623,-0.2494071546346623,-0.04847983981904441,657.561347292971,491.65001483242577)" filter="url(#llleaves-blur-3)" opacity="0.39"></path><path d="M94 112H144C172 112 194 134 194 162H144C116 162 94 140 94 112Z " transform="matrix(-0.10658273331575387,0.251093184437881,-0.251093184437881,-0.10658273331575387,193.74767986545822,115.44441590520341)" filter="url(#llleaves-blur-3)" opacity="0.42"></path><path d="M131 18H181C209 18 231 40 231 68H181C153 68 131 46 131 18Z " transform="matrix(-0.016966695618702805,0.24263505152228515,-0.24263505152228515,-0.016966695618702805,194.50427912244348,-0.18737641392939253)" filter="url(#llleaves-blur-3)" opacity="0.37"></path><path d="M683 11H733C761 11 783 33 783 61H733C705 61 683 39 683 11Z " transform="matrix(0.15721370587263325,-0.5142228615150979,0.5142228615150979,0.15721370587263325,599.2503305808164,407.265664079152)" opacity="0.83"></path><path d="M599 724H649C677 724 699 746 699 774H649C621 774 599 752 599 724Z " transform="matrix(-0.33405031977133337,0.10212943190517325,-0.10212943190517325,-0.33405031977133337,942.2936020285699,932.9216882022713)" filter="url(#llleaves-blur-2)" opacity="0.54"></path><path d="M689 454H739C767 454 789 476 789 504H739C711 504 689 482 689 454Z " transform="matrix(-0.37815334839836595,-0.16051657306044292,0.16051657306044292,-0.37815334839836595,941.5678859704403,778.7572013744846)" opacity="0.63"></path><path d="M695 179H745C773 179 795 201 795 229H745C717 229 695 207 695 179Z " transform="matrix(-0.37815334839836595,-0.16051657306044292,0.16051657306044292,-0.37815334839836595,993.9788636524523,400.72813000329666)" opacity="0.63"></path><path d="M7 30H57C85 30 107 52 107 80H57C29 80 7 58 7 30Z " transform="matrix(-0.28940240418485935,0.16041837215186028,-0.16041837215186028,-0.28940240418485935,82.31894750688929,61.77328501751123)" filter="url(#llleaves-blur-2)" opacity="0.51"></path><path d="M272 358H322C350 358 372 380 372 408H322C294 408 272 386 272 358Z " transform="matrix(0.05214311964822966,0.20913463010019764,-0.20913463010019764,0.05214311964822966,385.30847880164583,295.6878342824644)" filter="url(#llleaves-blur-3)" opacity="0.33"></path><path d="M-5 271H45C73 271 95 293 95 321H45C17 321 -5 299 -5 271Z " transform="matrix(-0.3340875184212959,0.10214080467377565,-0.10214080467377565,-0.3340875184212959,90.2676165123959,390.2935692423836)" filter="url(#llleaves-blur-2)" opacity="0.54"></path><path d="M610 347H660C688 347 710 369 710 397H660C632 397 610 375 610 347Z " transform="matrix(-0.3550035705836905,0.06259670774174654,-0.06259670774174654,-0.3550035705836905,917.5883318651653,462.7475011475801)" filter="url(#llleaves-blur-2)" opacity="0.55"></path><path d="M14 613H64C92 613 114 635 114 663H64C36 663 14 641 14 613Z " transform="matrix(-0.30522537595142973,0.14232893026939025,-0.14232893026939025,-0.30522537595142973,174.34028157276248,823.6247383197713)" filter="url(#llleaves-blur-2)" opacity="0.52"></path><path d="M420 264H470C498 264 520 286 520 314H470C442 314 420 292 420 264Z " transform="matrix(-0.02571187888982714,0.24463218656064775,-0.24463218656064775,-0.02571187888982714,552.7832849942461,181.45360531565558)" filter="url(#llleaves-blur-3)" opacity="0.38"></path></g></svg>